<?xml version="1.0" standalone="no"?>
<!DOCTYPE svg PUBLIC "-//W3C//DTD SVG 20010904//EN"
 "http://www.w3.org/TR/2001/REC-SVG-20010904/DTD/svg10.dtd">
<svg version="1.0" xmlns="http://www.w3.org/2000/svg"
 width="6324.000000pt" height="3952.000000pt" viewBox="0 0 6324.000000 3952.000000"
 preserveAspectRatio="xMidYMid meet">

<g transform="translate(0.000000,3952.000000) scale(0.100000,-0.100000)"
fill="#000000" stroke="none">
<path d="M14430 26606 c-117 -32 -249 -153 -394 -361 -30 -43 -31 -37 -6 50
60 208 17 293 -135 270 -98 -14 -165 -118 -190 -297 -8 -57 -15 -129 -15 -160
0 -54 -2 -58 -24 -58 -20 0 -26 9 -44 63 -11 34 -23 79 -27 100 -4 20 -11 40
-16 43 -5 3 -9 13 -9 22 0 19 -56 142 -84 187 -36 56 -80 95 -118 106 -52 13
-115 -4 -150 -42 -24 -25 -28 -39 -28 -85 0 -30 6 -69 14 -87 l13 -33 -51 25
c-35 18 -67 26 -104 25 -47 0 -56 -4 -92 -39 -37 -36 -40 -43 -40 -92 0 -40 6
-62 23 -86 32 -46 86 -98 152 -147 l58 -43 -54 -24 c-94 -43 -171 -86 -219
-122 -343 -256 -418 -645 -244 -1271 17 -60 87 -257 109 -305 8 -16 26 -57 40
-90 15 -33 37 -82 50 -110 13 -27 28 -81 34 -120 6 -38 13 -81 16 -95 8 -42
47 -144 62 -161 7 -8 13 -20 13 -26 0 -5 9 -18 20 -28 11 -10 17 -21 15 -25
-8 -13 6 -40 20 -40 7 0 15 -9 18 -21 4 -13 10 -18 18 -13 8 4 10 3 5 -4 -12
-20 4 -34 22 -20 15 12 16 11 3 -5 -13 -16 -10 -21 22 -52 42 -39 40 -11 17
-290 -5 -66 -12 -158 -15 -205 -3 -47 -8 -101 -11 -120 -4 -19 -7 -43 -7 -52
-1 -14 -10 -18 -37 -18 -40 0 -191 -32 -230 -48 -39 -17 -279 -90 -332 -102
-25 -5 -57 -14 -70 -19 -13 -5 -68 -19 -123 -31 -55 -13 -120 -28 -145 -36
-25 -7 -67 -16 -95 -20 -27 -4 -61 -11 -74 -16 -12 -4 -68 -15 -123 -23 -55
-9 -104 -17 -108 -20 -23 -14 -595 -77 -825 -90 -95 -5 -260 -40 -328 -69 -94
-41 -112 -50 -145 -71 -144 -93 -234 -192 -297 -325 -82 -173 -102 -362 -70
-657 9 -76 18 -145 20 -153 3 -8 11 -73 19 -145 31 -275 47 -402 56 -455 5
-30 12 -86 15 -125 4 -38 13 -108 20 -155 8 -47 16 -114 20 -150 3 -36 13
-110 21 -165 8 -55 19 -140 24 -190 29 -273 46 -405 57 -435 3 -8 16 39 29
105 42 209 65 318 83 395 11 41 27 111 36 155 10 44 28 123 42 175 13 52 33
129 44 170 10 41 23 86 28 100 5 14 19 59 31 100 42 145 119 363 161 456 11
22 19 43 19 47 0 10 75 161 103 209 12 21 33 57 45 80 30 54 113 180 128 193
7 6 26 30 43 55 54 75 177 208 298 319 69 64 265 204 372 265 222 129 375 190
574 231 37 8 71 16 76 19 13 8 138 -385 174 -549 90 -411 127 -719 127 -1068
0 -316 -41 -756 -90 -972 -10 -44 -26 -116 -35 -160 -19 -85 -97 -327 -121
-373 -8 -15 -14 -33 -14 -40 0 -7 -4 -20 -9 -30 -5 -9 -30 -59 -55 -109 -25
-51 -70 -134 -101 -184 -30 -51 -55 -95 -55 -100 0 -4 -3 -9 -7 -11 -5 -1 -23
-25 -42 -53 -19 -27 -40 -57 -47 -65 -51 -59 -76 -80 -86 -74 -7 4 -8 3 -4 -5
5 -7 -2 -21 -16 -35 -12 -12 -43 -46 -67 -74 -25 -29 -49 -52 -54 -52 -5 0 -3
8 4 18 13 15 12 16 -3 3 -10 -7 -15 -18 -12 -23 7 -12 -34 -58 -52 -58 -7 0
-16 -5 -20 -12 -5 -7 -2 -8 7 -3 8 4 -3 -9 -24 -29 -21 -20 -43 -34 -49 -30
-6 4 -8 3 -4 -4 3 -6 -11 -24 -31 -41 -20 -17 -40 -26 -43 -21 -3 5 -12 -4
-19 -21 -11 -25 -15 -28 -29 -17 -14 11 -15 10 -9 -6 6 -14 4 -17 -8 -12 -9 3
-14 2 -11 -3 3 -4 -7 -19 -22 -32 -14 -13 -20 -16 -13 -6 8 10 9 17 3 17 -7 0
-11 93 -11 293 0 160 -1 323 -1 360 0 45 -4 66 -10 62 -6 -4 -80 -145 -164
-313 -84 -169 -165 -328 -180 -354 -14 -26 -26 -49 -26 -51 0 -3 72 -8 160
-12 l160 -8 -30 -37 c-17 -21 -30 -41 -30 -46 0 -4 -6 -15 -14 -23 -33 -39
-140 -265 -181 -381 -8 -25 -24 -70 -34 -100 -26 -75 -63 -216 -69 -264 l-4
-39 68 6 c70 6 97 11 169 27 22 5 61 10 87 10 26 0 50 5 53 10 4 6 10 8 14 5
13 -7 425 56 487 75 17 6 44 10 61 10 18 0 71 9 120 19 48 11 127 27 174 36
47 9 110 23 140 31 30 9 63 17 74 19 89 16 249 47 340 65 33 7 83 17 110 22
28 5 82 18 122 29 39 10 88 19 108 19 20 0 45 4 55 10 16 9 62 19 230 49 107
20 176 31 229 36 30 3 57 8 60 10 3 2 5 -30 3 -69 -4 -93 12 -136 61 -159 30
-15 73 -17 300 -17 299 0 323 4 351 64 14 30 16 93 16 546 0 559 1 546 -59
589 -28 20 -42 21 -306 21 -261 0 -280 -1 -310 -20 -18 -11 -38 -35 -44 -52
-6 -18 -11 -108 -11 -213 0 -134 -3 -185 -12 -193 -7 -5 -51 -30 -98 -54 -47
-24 -96 -51 -110 -59 -22 -14 -98 -15 -664 -8 -351 4 -646 11 -655 14 -20 9
-130 9 -138 1 -4 -3 -10 -6 -15 -6 -10 0 18 44 50 79 12 13 22 28 22 32 0 5 8
9 18 10 9 0 12 3 5 6 -9 3 -4 17 14 46 14 23 29 44 32 47 4 3 28 39 55 80 27
41 57 87 67 102 11 15 19 29 19 32 0 3 14 29 31 57 51 88 132 248 181 359 90
207 110 263 208 575 33 106 65 252 115 530 37 208 50 414 50 780 -1 293 -5
402 -23 585 -37 377 -76 630 -142 910 -15 63 -24 116 -21 118 3 1 40 5 81 10
l75 7 42 -55 c24 -30 52 -66 62 -80 18 -23 130 -136 176 -178 96 -88 241 -173
350 -207 79 -24 80 -24 120 -6 22 10 58 26 80 36 78 33 130 59 155 75 130 85
153 105 263 219 90 92 97 100 97 109 0 5 14 21 31 38 33 31 32 21 14 154 -2
14 -9 48 -15 75 -6 28 -13 63 -16 79 -2 16 -8 34 -13 39 -7 7 -7 16 0 28 6 12
6 34 0 61 -20 87 -22 104 -27 168 -3 36 -12 124 -20 197 -18 168 -18 199 1
207 8 3 15 13 15 22 0 10 3 15 6 11 9 -8 57 51 50 62 -3 5 10 21 30 36 22 17
33 33 30 42 -4 9 -2 11 6 7 8 -5 9 -2 5 10 -4 10 -3 15 3 11 9 -5 45 61 42 78
-1 4 2 7 8 7 5 0 10 6 10 14 0 8 9 30 19 48 16 27 23 53 35 118 1 3 5 10 9 17
4 6 4 19 0 29 -4 12 -3 15 6 10 9 -6 12 10 10 68 -1 56 2 81 13 94 18 19 138
230 138 240 0 4 8 23 19 42 18 34 82 211 114 315 53 173 69 457 34 625 -51
241 -150 428 -277 523 -50 37 -209 117 -234 117 -7 0 -20 6 -30 13 -15 11 -6
19 83 65 119 61 158 85 228 140 88 70 93 141 12 183 -37 18 -55 21 -130 17
l-87 -4 38 51 c100 135 105 196 21 224 -42 14 -73 13 -131 -3z m-1522 -2111
c-3 -3 -9 2 -12 12 -6 14 -5 15 5 6 7 -7 10 -15 7 -18z m707 -25 c3 -6 -1 -7
-9 -4 -18 7 -21 14 -7 14 6 0 13 -4 16 -10z m805 -36 c0 -8 -19 -13 -24 -6 -3
5 1 9 9 9 8 0 15 -2 15 -3z m-1396 -72 c3 -5 -1 -9 -9 -9 -8 0 -12 4 -9 9 3 4
7 8 9 8 2 0 6 -4 9 -8z m637 -163 c-5 -13 -10 -19 -10 -12 -1 15 10 45 15 40
3 -2 0 -15 -5 -28z m-76 -147 c-3 -3 -11 0 -18 7 -9 10 -8 11 6 5 10 -3 15 -9
12 -12z m438 -457 c12 -5 15 -11 7 -20 -5 -6 -7 -14 -5 -17 3 -3 -6 -13 -20
-22 -14 -9 -23 -22 -19 -28 4 -7 3 -8 -4 -4 -6 3 -16 -2 -21 -13 -6 -11 -21
-21 -33 -23 -13 -2 -22 -9 -20 -16 1 -8 -2 -11 -8 -7 -6 4 -17 1 -25 -5 -14
-12 -183 -16 -220 -5 -11 3 -24 6 -28 5 -4 0 -15 6 -24 15 -17 17 -40 15 -35
-4 1 -7 -2 -10 -7 -6 -6 3 -8 12 -5 20 4 9 -4 19 -20 26 -27 13 -83 85 -73 95
3 4 48 11 99 16 51 4 96 10 100 11 18 5 345 -11 361 -18z m333 -167 c4 -7 4
-10 -1 -6 -4 4 -15 2 -24 -5 -14 -11 -14 -10 -2 6 16 20 18 21 27 5z m-1166
-2 c0 -2 -8 -10 -17 -17 -16 -13 -17 -12 -4 4 13 16 21 21 21 13z m1335 -5215
c3 -5 2 -12 -3 -15 -5 -3 -9 1 -9 9 0 17 3 19 12 6z m53 -92 c-3 -8 -7 -3 -11
10 -4 17 -3 21 5 13 5 -5 8 -16 6 -23z m-428 -413 c0 -2 -7 -6 -15 -10 -8 -3
-15 -1 -15 4 0 6 7 10 15 10 8 0 15 -2 15 -4z"/>
<path d="M49075 26512 c-24 -21 -135 -53 -232 -68 -71 -10 -163 -15 -282 -13
-266 3 -415 -23 -596 -106 -121 -56 -245 -161 -321 -271 -36 -53 -50 -83 -100
-214 -19 -50 -44 -225 -44 -306 0 -92 26 -235 55 -310 53 -134 115 -356 186
-669 11 -49 23 -103 27 -119 4 -15 5 59 3 167 -6 358 27 507 147 667 98 131
294 184 562 151 47 -6 148 -18 225 -26 77 -8 167 -18 200 -22 105 -14 430 -8
430 7 0 1 8 3 17 5 51 10 91 30 126 65 l39 39 24 -52 c24 -52 24 -55 29 -462
l5 -410 38 150 c21 83 49 191 62 240 14 50 32 123 40 163 8 41 17 78 20 82 3
4 14 54 25 111 72 381 72 595 -1 740 -18 36 -118 135 -168 167 -14 9 -28 19
-31 23 -10 12 -108 57 -175 79 -58 20 -91 24 -192 24 -68 1 -123 5 -123 9 0 4
6 20 14 35 19 39 28 132 13 132 -7 0 -17 -4 -22 -8z"/>
<path d="M22515 25734 c-135 -20 -315 -75 -438 -135 -22 -11 -42 -19 -46 -19
-15 0 -215 -111 -245 -136 -194 -160 -282 -321 -307 -566 -21 -201 7 -413 87
-655 l34 -102 -61 -63 c-121 -126 -268 -332 -339 -474 -77 -153 -101 -308 -65
-415 26 -76 120 -158 212 -184 12 -3 20 -11 17 -18 -2 -7 -20 -86 -39 -177
-75 -357 -146 -564 -243 -710 -59 -88 -132 -250 -210 -460 -53 -144 -159 -531
-177 -645 -3 -22 -10 -56 -15 -76 -21 -76 -50 -342 -57 -509 -6 -162 -5 -174
10 -161 10 7 17 18 17 23 0 6 20 58 46 117 25 58 59 140 76 181 16 41 47 116
69 165 21 50 66 155 99 235 162 382 244 527 349 621 30 27 59 49 65 49 5 0 28
9 50 19 70 33 119 53 171 68 88 25 239 64 281 72 l42 8 40 -81 c40 -81 91
-189 131 -278 11 -27 30 -67 40 -90 28 -62 141 -337 141 -344 0 -3 7 -20 15
-37 8 -18 28 -72 45 -122 18 -49 50 -142 72 -205 56 -156 177 -556 207 -680 5
-19 19 -71 31 -115 11 -44 27 -109 35 -145 7 -36 25 -119 39 -185 95 -433 148
-852 162 -1276 3 -119 3 -287 -1 -373 l-7 -156 -72 6 c-39 3 -105 11 -146 19
-41 7 -100 17 -130 20 -30 4 -91 15 -135 26 -44 10 -111 26 -150 35 -82 19
-156 41 -315 95 -63 22 -118 39 -121 39 -3 0 0 -39 7 -87 19 -132 17 -199 -6
-242 -10 -20 -33 -67 -51 -106 -17 -38 -45 -99 -61 -135 -17 -36 -43 -94 -58
-130 -34 -78 -230 -519 -271 -608 -16 -34 -29 -65 -29 -70 0 -10 -66 -161 -74
-169 -3 -4 -6 -12 -6 -20 0 -10 45 -13 233 -13 127 0 269 -3 315 -7 l82 -6 0
-143 c0 -138 1 -144 23 -157 22 -15 49 -20 257 -57 63 -11 147 -26 185 -34 39
-8 100 -20 137 -26 118 -19 117 -18 57 -80 -85 -88 -187 -230 -211 -292 -21
-54 -24 -56 -53 -52 -67 11 -76 15 -69 27 4 7 4 9 -1 5 -4 -4 -15 -2 -23 5
-13 9 -14 9 -8 0 4 -7 6 -13 4 -13 -2 0 -55 9 -118 19 -107 18 -147 26 -350
66 -41 8 -115 22 -165 31 -127 22 -338 62 -420 79 -38 8 -88 17 -110 20 -22 4
-64 11 -92 16 l-53 10 0 72 c0 40 7 175 15 302 8 126 13 231 10 233 -2 2 -29
0 -60 -3 -45 -6 -58 -12 -64 -29 -5 -11 -11 -117 -14 -233 -4 -117 -10 -237
-13 -267 l-7 -54 -31 9 c-77 22 -189 2 -224 -41 -29 -35 -54 -96 -63 -154 -5
-33 -16 -92 -24 -131 -21 -104 -53 -268 -70 -365 -8 -47 -19 -110 -25 -140 -6
-30 -19 -102 -30 -160 -10 -58 -23 -119 -29 -137 -5 -17 -12 -69 -16 -117 -7
-76 -5 -90 15 -132 26 -53 96 -104 143 -104 15 0 70 -9 120 -19 51 -11 118
-25 150 -31 64 -13 64 -12 43 -103 -8 -34 -21 -100 -30 -147 -29 -165 -67
-366 -81 -430 -8 -36 -17 -83 -20 -105 -3 -22 -12 -71 -20 -110 -16 -77 -45
-231 -70 -370 -22 -129 -52 -287 -70 -380 -9 -44 -20 -107 -26 -140 -5 -33
-16 -91 -24 -130 -8 -38 -24 -124 -35 -190 -11 -66 -27 -154 -35 -195 -8 -41
-24 -127 -35 -190 -12 -63 -28 -151 -37 -195 -20 -102 -41 -222 -53 -305 -6
-36 -17 -96 -25 -135 -8 -38 -24 -119 -35 -180 -34 -192 -70 -387 -85 -465 -8
-41 -21 -118 -30 -170 -20 -116 -60 -338 -80 -440 -21 -108 -53 -285 -64 -355
-23 -141 -79 -449 -91 -495 -4 -19 -11 -57 -14 -85 -4 -27 -13 -81 -21 -120
-12 -61 -45 -241 -75 -415 -16 -91 -83 -463 -109 -605 -11 -55 -16 -104 -12
-108 10 -10 336 -93 486 -123 66 -13 147 -30 180 -38 145 -35 534 -104 760
-135 39 -6 97 -15 130 -20 33 -6 107 -15 165 -20 58 -6 114 -12 125 -15 37 -7
109 -15 210 -22 55 -3 111 -8 125 -9 41 -5 176 -16 320 -25 132 -8 906 -5 965
4 17 3 57 7 90 10 454 40 858 120 1215 239 l95 32 6 40 c4 22 12 126 18 230 7
105 16 240 21 300 10 116 31 432 55 855 8 140 17 271 20 290 3 19 12 163 20
320 8 157 17 296 20 310 3 14 12 162 20 330 8 168 17 316 20 330 3 14 12 169
20 345 8 176 17 336 20 355 5 35 23 395 50 990 8 179 19 395 24 480 6 85 13
241 16 345 3 105 12 332 20 505 34 749 47 1933 25 2365 -12 247 -31 369 -79
525 -16 52 -42 136 -56 185 -15 50 -35 115 -45 145 -10 30 -30 96 -44 145 -22
78 -54 185 -125 420 -69 224 -69 224 -59 273 14 76 39 294 35 299 -3 2 -35
-12 -73 -31 -38 -20 -73 -36 -79 -36 -5 0 -23 -7 -39 -15 -85 -45 -337 -114
-541 -150 -150 -26 -375 -45 -545 -45 l-105 0 8 302 c8 300 -1 636 -23 888
-23 252 -89 652 -150 910 -10 41 -25 111 -35 155 -9 44 -26 112 -37 150 -35
127 -59 210 -70 244 -6 19 -23 80 -38 135 -16 56 -33 115 -39 131 -6 17 -49
145 -96 285 -47 140 -96 287 -111 325 -14 39 -30 84 -36 100 -5 17 -16 44 -23
60 -8 17 -21 53 -30 80 -15 43 -52 136 -85 210 -64 144 -71 163 -61 169 4 3
50 10 101 17 84 11 96 15 122 43 34 36 105 181 136 276 66 205 102 418 109
655 6 168 5 183 -14 220 -35 69 -53 184 -53 345 l0 147 83 6 c143 11 317 58
402 110 48 29 133 94 170 128 21 21 41 37 43 35 3 -4 -84 -134 -97 -146 -3 -3
-19 -24 -35 -47 -16 -24 -33 -43 -37 -43 -5 0 -9 -5 -9 -10 0 -11 -42 -59
-175 -199 l-90 -94 50 28 c215 121 359 262 519 509 51 78 159 281 193 362 29
68 91 243 98 272 3 18 10 32 14 32 8 0 92 -87 141 -145 24 -29 57 -77 93 -136
18 -29 42 -124 77 -294 44 -215 92 -335 136 -335 17 0 17 -9 4 -120 -20 -175
-97 -514 -140 -615 -68 -161 -122 -240 -186 -270 -31 -15 -53 -16 -129 -11
-91 7 -93 7 -98 -16 -10 -39 0 -558 12 -633 17 -108 26 -122 74 -130 190 -29
555 -131 672 -188 28 -13 55 -26 60 -28 36 -14 125 -88 152 -128 76 -110 98
-206 113 -492 6 -112 15 -258 20 -324 11 -144 12 -471 2 -610 -4 -55 -6 -128
-4 -163 l4 -62 37 21 c29 16 42 32 54 67 82 233 25 1086 -114 1702 -77 339
-122 481 -214 665 -102 204 -114 308 -115 966 0 212 -5 446 -11 520 -17 225
-60 504 -79 523 -26 26 -9 62 63 136 134 138 249 287 333 430 83 141 109 206
125 308 20 134 -13 245 -94 306 -50 38 -137 74 -214 87 -177 31 -514 -13 -762
-99 -24 -8 -58 -18 -75 -22 -17 -4 -47 -15 -67 -24 l-37 -15 -63 60 c-55 53
-162 136 -225 177 -53 34 -189 93 -269 117 -78 23 -111 27 -255 30 -91 2 -178
1 -195 -1z"/>
<path d="M39410 24943 c-47 -6 -201 -47 -274 -72 -197 -69 -469 -266 -561
-406 -122 -187 -134 -465 -34 -797 16 -54 34 -100 40 -103 15 -10 72 56 87
101 17 50 48 178 66 274 34 177 77 294 136 363 61 72 159 171 165 165 4 -3 24
-57 45 -120 35 -106 85 -227 112 -273 6 -11 33 -62 60 -114 26 -52 54 -102 62
-110 7 -9 16 -24 19 -33 20 -57 217 -288 323 -378 69 -59 227 -160 250 -160 5
0 -32 42 -82 93 -92 94 -189 205 -235 267 -14 19 -52 71 -84 115 l-58 80 44
-41 c85 -78 145 -122 219 -159 76 -38 223 -80 315 -90 27 -3 70 -8 93 -11 l44
-6 -4 -181 c-5 -172 -7 -186 -34 -257 -28 -73 -29 -79 -28 -248 2 -219 3 -222
53 -222 51 0 189 29 224 46 33 17 35 6 5 -31 l-22 -28 119 7 c244 15 423 55
510 114 37 25 42 35 62 112 43 166 26 599 -33 880 -48 222 -84 350 -139 485
-95 234 -205 411 -324 519 -19 17 -41 38 -50 47 -49 48 -183 119 -281 149 -75
23 -192 30 -365 22 -33 -1 -139 -1 -235 2 -96 2 -191 2 -210 -1z"/>
<path d="M30845 24869 c-31 -9 -66 -27 -167 -85 l-53 -32 -105 10 c-219 20
-426 -26 -564 -125 -179 -130 -281 -294 -371 -602 -92 -311 -91 -1004 1 -1319
45 -155 -29 -478 -198 -866 -93 -215 -275 -573 -372 -730 -25 -41 -55 -93 -67
-115 -36 -67 -223 -350 -304 -460 -242 -327 -356 -580 -415 -920 -30 -175 -28
-422 5 -615 14 -80 34 -176 45 -215 10 -38 27 -97 36 -130 8 -33 19 -64 24
-70 4 -5 13 -28 20 -50 7 -22 16 -44 21 -50 5 -5 9 -15 9 -23 0 -21 163 -343
223 -442 59 -96 117 -184 165 -250 18 -25 41 -56 50 -69 9 -13 25 -33 34 -45
10 -11 39 -48 65 -81 26 -33 52 -65 58 -71 5 -6 41 -47 79 -90 39 -43 114
-123 168 -178 109 -110 107 -102 88 -238 -31 -220 -80 -1034 -80 -1320 0 -239
11 -293 78 -381 l40 -52 6 -200 c11 -309 36 -654 66 -911 10 -83 18 -151 49
-449 15 -138 49 -396 96 -730 9 -60 23 -162 31 -225 42 -326 64 -481 89 -635
8 -49 17 -112 20 -140 3 -27 12 -90 20 -140 8 -49 24 -160 35 -245 11 -85 27
-195 35 -245 8 -49 17 -112 20 -140 4 -27 15 -104 25 -170 48 -317 96 -644
124 -855 9 -63 18 -121 21 -130 3 -8 11 -60 19 -115 16 -111 39 -255 61 -385
8 -47 24 -143 35 -215 28 -182 58 -358 75 -440 8 -38 19 -105 25 -149 5 -43
12 -82 15 -86 2 -4 12 -54 20 -110 8 -56 17 -106 20 -110 3 -4 11 -52 20 -106
8 -55 24 -148 35 -209 12 -60 27 -144 34 -185 25 -139 47 -255 61 -325 8 -38
24 -124 35 -190 12 -66 27 -149 35 -185 8 -36 26 -128 40 -205 14 -77 32 -167
39 -200 8 -33 17 -80 20 -105 16 -110 24 -126 79 -153 148 -72 311 -93 527
-67 137 17 277 73 285 115 6 31 44 410 50 500 3 44 11 163 19 265 8 102 18
255 21 340 3 85 10 218 16 295 25 379 58 1759 59 2500 0 242 5 492 10 555 5
63 14 198 20 300 6 102 17 259 25 350 7 91 17 215 20 275 3 61 10 153 16 205
10 100 35 458 46 643 3 59 9 104 14 100 7 -7 179 -389 179 -398 0 -2 29 -65
65 -140 36 -75 65 -139 65 -141 0 -3 17 -40 100 -219 15 -33 39 -85 53 -115
67 -146 101 -219 122 -265 44 -92 95 -204 95 -209 0 -3 18 -44 41 -93 57 -123
154 -343 184 -418 6 -16 19 -48 29 -70 25 -60 52 -125 72 -175 10 -25 26 -64
36 -87 10 -23 18 -46 18 -50 0 -4 13 -39 28 -78 30 -72 86 -234 166 -480 25
-77 63 -189 85 -250 21 -60 44 -126 51 -145 7 -19 18 -48 25 -65 8 -16 20 -48
28 -70 37 -101 67 -177 80 -207 9 -18 30 -67 47 -108 32 -76 40 -95 81 -185
12 -27 28 -63 35 -80 7 -16 83 -172 169 -345 136 -275 186 -372 262 -506 10
-17 33 -58 50 -90 18 -33 44 -77 58 -99 13 -22 34 -56 45 -75 93 -158 161
-263 364 -565 33 -49 91 -132 128 -182 37 -51 68 -95 68 -97 0 -2 9 -15 20
-28 11 -12 63 -79 117 -148 152 -195 163 -205 263 -228 283 -68 277 -67 455
-66 154 1 260 11 503 50 36 6 39 16 18 71 -8 21 -33 99 -56 173 -23 74 -47
151 -55 170 -15 39 -83 253 -139 435 -21 66 -45 145 -56 175 -25 76 -72 227
-105 335 -14 50 -35 115 -45 145 -22 66 -86 270 -135 435 -20 66 -42 138 -50
160 -15 45 -48 154 -101 330 -20 66 -45 149 -55 185 -11 36 -25 79 -30 95 -6
17 -21 68 -34 115 -24 84 -49 167 -86 285 -41 133 -97 324 -114 385 -9 36 -25
90 -35 120 -10 30 -28 91 -40 135 -12 44 -28 96 -35 115 -7 19 -22 73 -34 120
-12 47 -30 112 -41 145 -24 77 -51 169 -80 270 -12 44 -30 107 -40 140 -10 33
-25 89 -35 125 -10 36 -26 92 -36 125 -10 33 -28 94 -39 135 -12 41 -27 95
-35 120 -8 25 -19 63 -24 85 -13 54 -46 174 -71 260 -12 39 -29 99 -39 135
-43 154 -94 339 -106 385 -14 55 -74 273 -104 375 -10 36 -26 94 -36 130 -9
36 -25 94 -35 130 -10 36 -27 99 -38 140 -53 198 -94 352 -112 418 -38 141
-60 223 -80 300 -11 42 -29 109 -40 147 -11 39 -28 106 -39 150 -11 44 -32
125 -47 180 -15 55 -33 125 -40 155 -7 30 -32 127 -54 215 -23 88 -48 185 -56
215 -7 30 -23 93 -34 140 -17 66 -19 85 -9 89 28 9 70 69 88 126 34 106 45
243 37 497 -3 128 -8 260 -11 293 -11 128 -37 364 -51 455 -8 52 -16 118 -19
145 -7 57 -39 269 -60 395 -9 47 -19 112 -25 145 -5 33 -19 112 -30 175 -11
63 -27 155 -35 204 -8 49 -19 103 -25 120 -5 17 -14 60 -19 96 -6 36 -17 99
-25 140 -22 113 -54 337 -71 505 -20 198 -52 496 -71 668 -9 77 -14 141 -11
143 2 2 69 -77 148 -177 79 -100 149 -187 154 -193 18 -20 131 -171 148 -198
33 -53 17 -158 -64 -427 -16 -52 -28 -96 -26 -97 11 -10 113 -59 157 -75 120
-43 230 -61 411 -66 96 -3 205 -3 242 1 l67 8 44 91 c118 244 166 400 166 541
0 94 -44 245 -110 377 -57 113 -154 295 -169 317 -20 28 -136 213 -155 247 -6
11 -25 40 -41 64 -17 24 -37 54 -45 67 -30 45 -170 250 -207 303 -21 29 -45
63 -53 76 -8 13 -28 41 -45 64 -16 23 -68 94 -114 159 -47 64 -115 158 -153
209 -37 50 -68 96 -68 102 0 6 -3 11 -7 11 -5 0 -24 24 -43 53 -19 28 -41 56
-47 60 -7 4 -13 14 -13 22 0 8 -6 18 -13 22 -7 4 -20 19 -30 33 -9 14 -39 57
-66 95 -28 39 -76 108 -108 155 -60 87 -274 310 -298 310 -3 0 -34 19 -68 43
-128 87 -378 193 -549 233 -30 7 -34 14 -18 30 13 13 48 115 71 206 50 206 48
567 -5 893 -31 192 -99 471 -118 490 -7 7 -8 1 -3 -20 14 -57 14 -524 0 -640
-22 -182 -66 -313 -123 -368 -23 -22 -49 -31 -126 -46 -54 -11 -100 -22 -103
-25 -3 -3 -8 -104 -11 -224 l-5 -220 -226 -7 c-124 -3 -357 -12 -517 -18
l-292 -12 19 50 c22 60 46 254 54 455 l7 145 -59 60 c-75 77 -118 154 -143
258 -11 45 -31 127 -44 182 l-23 100 46 13 c47 14 162 58 190 72 9 5 43 21 76
36 122 55 248 178 344 335 67 109 163 328 206 469 41 136 43 142 55 203 6 31
13 57 16 57 23 0 192 -127 255 -191 58 -61 106 -146 179 -324 56 -133 95 -211
133 -262 29 -40 70 -63 84 -50 10 11 22 151 23 267 0 162 -16 278 -57 394 -61
177 -150 275 -330 367 -85 44 -110 62 -134 97 -16 23 -33 48 -39 55 -130 159
-201 217 -303 249 -63 20 -91 23 -227 21 -93 0 -180 -7 -218 -15 l-62 -15 22
24 c12 12 27 23 34 23 7 0 16 5 19 10 7 12 1 11 -40 -1z m313 -243 c34 -12 28
-13 -90 -19 -120 -6 -264 -31 -356 -63 -57 -19 -194 -91 -208 -110 -6 -7 -16
-14 -22 -14 -6 0 -18 -10 -26 -22 -9 -12 -16 -18 -16 -13 1 28 105 115 207
173 79 44 159 72 243 83 71 9 222 1 268 -15z m1023 -2546 c1 -85 -1 -190 -6
-232 -6 -66 -10 -78 -26 -78 -27 0 -29 9 -12 95 8 44 17 161 21 260 7 217 21
190 23 -45z m-1841 -3415 c25 -7 115 -29 200 -49 85 -20 180 -43 211 -51 30
-8 91 -21 135 -31 43 -9 88 -18 99 -21 11 -2 31 -6 45 -9 275 -57 502 -99 635
-119 55 -8 113 -20 129 -25 47 -16 141 -12 196 9 31 12 68 38 98 69 46 47 52
50 147 72 66 14 120 34 158 56 57 33 87 42 87 26 0 -7 -48 -83 -75 -118 -15
-20 -4 -23 50 -13 29 5 63 20 82 37 17 15 64 55 103 90 55 48 78 62 98 60 36
-4 44 -38 46 -188 1 -117 -1 -129 -26 -182 -51 -104 -114 -137 -303 -158 -55
-6 -111 -13 -125 -16 -14 -3 -68 -12 -120 -20 -52 -8 -101 -17 -109 -19 -7 -3
-52 -12 -100 -20 -47 -8 -97 -17 -111 -21 -14 -3 -61 -12 -105 -19 -44 -7 -98
-17 -120 -23 -22 -6 -62 -13 -90 -17 -27 -4 -59 -9 -70 -11 -39 -7 -191 -32
-290 -48 -55 -9 -138 -23 -185 -31 -47 -8 -112 -17 -145 -21 -33 -3 -123 -14
-200 -24 -376 -50 -744 -69 -987 -52 -89 7 -181 18 -203 24 l-40 12 80 7 c215
17 426 183 554 434 50 99 74 167 126 355 10 36 20 68 22 73 5 8 32 3 103 -18z"/>
<path d="M49300 23389 c0 -36 39 -281 61 -384 11 -49 19 -98 19 -107 0 -12 10
-19 33 -22 143 -21 247 -40 246 -45 0 -3 -13 -28 -29 -56 -28 -48 -183 -360
-200 -400 -4 -11 -22 -54 -40 -95 -48 -110 -120 -292 -120 -302 0 -5 -9 -28
-19 -51 -11 -24 -23 -56 -27 -72 -4 -17 -10 -34 -14 -40 -5 -5 -13 -26 -18
-45 -6 -19 -20 -61 -32 -94 -11 -32 -20 -60 -18 -62 2 -1 60 51 128 117 340
328 633 609 795 764 66 63 146 140 177 172 55 55 58 56 83 43 15 -8 43 -28 62
-45 l36 -31 -11 -49 c-6 -28 -14 -81 -18 -120 -3 -38 -12 -110 -19 -160 -7
-49 -16 -126 -20 -170 -3 -44 -12 -143 -20 -220 -49 -474 -48 -1210 1 -1560
66 -475 130 -735 258 -1048 100 -245 292 -563 327 -541 6 3 38 1 70 -6 33 -7
62 -11 64 -8 3 3 -10 21 -28 41 -53 59 -131 170 -138 197 -6 23 -28 95 -86
285 -13 44 -28 96 -32 115 -12 49 -31 124 -51 200 -22 80 -52 220 -79 365 -63
337 -80 657 -63 1192 12 377 24 501 67 702 34 159 122 431 139 431 10 -1 58
-61 171 -213 52 -70 165 -243 181 -277 4 -8 25 -41 46 -72 21 -32 42 -66 46
-75 4 -10 27 -54 52 -98 84 -150 135 -250 230 -450 66 -140 69 -147 98 -215
11 -25 36 -83 57 -130 20 -47 57 -137 81 -200 24 -63 50 -126 56 -140 6 -14
19 -45 28 -70 9 -25 34 -90 54 -145 21 -55 53 -147 73 -205 47 -141 46 -139
71 -83 136 303 271 741 344 1118 20 104 23 151 23 355 0 232 0 236 -28 311
-15 41 -42 92 -59 113 -16 20 -89 76 -162 124 -210 140 -479 332 -506 362 -4
5 -28 24 -139 115 -132 108 -329 306 -462 465 -34 41 -67 80 -73 87 -6 6 -22
27 -35 45 -32 44 -114 111 -176 144 -45 24 -61 27 -160 27 -91 0 -120 -4 -165
-22 -61 -24 -146 -66 -172 -83 -13 -10 -26 -3 -76 43 -76 71 -214 139 -377
188 -178 53 -283 77 -387 91 -37 5 -78 12 -92 16 -22 5 -26 3 -26 -17z"/>
<path d="M47925 23374 c-122 -26 -356 -87 -405 -106 -14 -6 -58 -21 -98 -34
-229 -75 -412 -246 -412 -384 0 -67 26 -105 155 -228 32 -31 82 -79 110 -107
28 -27 133 -129 234 -225 101 -96 252 -241 335 -322 83 -82 153 -148 154 -148
2 0 45 -42 96 -92 145 -145 138 -141 109 -61 -13 37 -29 84 -35 103 -5 19 -16
49 -23 65 -7 17 -25 66 -40 110 -15 44 -31 84 -36 90 -5 5 -9 15 -9 23 0 7
-11 37 -23 65 -13 29 -34 79 -48 112 -13 33 -32 75 -41 93 -10 18 -18 38 -18
44 0 13 -159 336 -200 405 l-31 52 48 6 c121 15 169 26 179 40 15 20 39 133
64 300 21 146 25 216 13 214 -5 -1 -39 -7 -78 -15z"/>
<path d="M38730 22693 c-41 -65 -101 -118 -149 -130 l-35 -9 75 -27 c89 -33
108 -33 143 -6 31 24 46 18 28 -12 -19 -30 2 -33 167 -25 183 8 189 9 183 46
l-4 28 -119 4 -118 3 -41 40 c-23 22 -46 49 -51 60 -6 11 -18 34 -27 52 l-17
32 -35 -56z"/>
<path d="M36479 20476 c-2 -2 -85 -7 -184 -11 -99 -4 -183 -9 -186 -11 -3 -1
-40 -4 -81 -5 -99 -4 -109 -17 -101 -137 3 -45 9 -82 13 -82 4 0 14 7 21 16 7
9 22 20 34 25 11 6 31 17 45 25 18 11 48 14 110 12 80 -3 89 -5 127 -36 63
-50 86 -106 81 -200 -3 -67 -10 -89 -48 -164 -47 -94 -106 -164 -184 -216 -26
-18 -49 -32 -51 -32 -3 0 -30 -16 -61 -36 l-56 -36 5 -122 c3 -66 7 -156 9
-199 3 -69 7 -80 30 -102 26 -24 88 -36 88 -17 0 5 28 7 63 5 110 -6 503 21
521 36 21 18 21 163 0 521 -8 146 -18 369 -22 496 -7 231 -7 232 -32 253 -19
15 -39 20 -81 21 -31 0 -58 -2 -60 -4z"/>
<path d="M15867 19569 c7 -7 15 -10 18 -7 3 3 -2 9 -12 12 -14 6 -15 5 -6 -5z"/>
<path d="M15895 19551 c-6 -11 13 -26 22 -17 4 3 0 6 -8 6 -11 0 -11 2 1 10 9
6 10 10 3 10 -6 0 -14 -4 -18 -9z"/>
<path d="M16006 19512 c-3 -4 4 -9 15 -9 23 -2 25 3 4 10 -8 4 -16 3 -19 -1z"/>
<path d="M15971 19497 c2 -1 13 -9 24 -17 19 -14 19 -14 6 3 -7 9 -18 17 -24
17 -6 0 -8 -1 -6 -3z"/>
<path d="M16050 19495 c0 -5 5 -17 10 -25 5 -8 10 -10 10 -5 0 6 -5 17 -10 25
-5 8 -10 11 -10 5z"/>
<path d="M16065 19431 c-6 -11 13 -26 22 -17 4 3 1 6 -6 6 -7 0 -9 5 -6 10 3
6 4 10 1 10 -3 0 -7 -4 -11 -9z"/>
<path d="M16135 19420 c13 -20 13 -33 0 -43 -6 -5 -5 -7 4 -5 20 6 22 35 3 50
-13 11 -14 11 -7 -2z"/>
<path d="M16236 19332 c-3 -4 4 -9 15 -9 23 -2 25 3 4 10 -8 4 -16 3 -19 -1z"/>
<path d="M16285 19290 c-3 -6 1 -7 9 -4 18 7 21 14 7 14 -6 0 -13 -4 -16 -10z"/>
<path d="M16346 19258 c3 -5 10 -6 15 -3 13 9 11 12 -6 12 -8 0 -12 -4 -9 -9z"/>
<path d="M16370 19226 c7 -7 13 -7 20 0 6 6 3 10 -10 10 -13 0 -16 -4 -10 -10z"/>
<path d="M16466 19168 c3 -5 10 -6 15 -3 13 9 11 12 -6 12 -8 0 -12 -4 -9 -9z"/>
<path d="M16495 19161 c-3 -5 0 -13 6 -17 7 -4 9 -3 5 4 -3 5 0 13 6 15 9 4
10 6 1 6 -6 1 -14 -3 -18 -8z"/>
<path d="M16545 19128 c9 -22 33 -30 41 -15 4 7 3 9 -1 4 -5 -4 -17 1 -27 10
-17 15 -18 15 -13 1z"/>
<path d="M16730 19005 c0 -7 30 -13 34 -7 3 4 -4 9 -15 9 -10 1 -19 0 -19 -2z"/>
<path d="M16789 18993 c-12 -16 -12 -17 2 -6 9 7 20 9 24 5 5 -4 5 -1 1 6 -9
16 -11 15 -27 -5z"/>
<path d="M12095 18580 c-3 -5 -1 -10 4 -10 6 0 11 5 11 10 0 6 -2 10 -4 10 -3
0 -8 -4 -11 -10z"/>
<path d="M11770 18209 c0 -5 5 -7 10 -4 6 3 10 8 10 11 0 2 -4 4 -10 4 -5 0
-10 -5 -10 -11z"/>
<path d="M18265 18210 c-3 -5 -1 -10 4 -10 6 0 11 5 11 10 0 6 -2 10 -4 10 -3
0 -8 -4 -11 -10z"/>
<path d="M18172 18058 c0 -18 2 -28 6 -23 4 6 10 12 14 15 3 3 1 13 -6 22 -12
16 -13 14 -14 -14z"/>
<path d="M38356 17928 c3 -24 10 -68 15 -98 5 -30 13 -91 19 -135 11 -87 17
-59 -70 -340 -36 -114 -81 -266 -142 -480 -11 -38 -26 -88 -33 -110 -8 -22
-21 -67 -30 -100 -9 -33 -25 -85 -35 -115 -103 -318 -147 -550 -192 -1020 -21
-216 -22 -288 -23 -897 0 -364 3 -664 6 -668 7 -7 116 -47 189 -70 25 -8 86
-27 135 -43 50 -16 133 -39 185 -51 52 -12 122 -29 155 -37 185 -44 553 -96
825 -115 245 -17 807 -14 1070 5 219 17 480 45 650 71 235 37 410 68 555 100
66 15 138 30 160 35 34 7 304 77 373 96 16 5 21 12 17 23 -3 8 -20 74 -37 146
-17 71 -60 245 -96 385 -35 140 -70 280 -77 310 -7 30 -20 82 -28 115 -9 33
-25 96 -36 140 -38 151 -72 281 -111 415 -10 36 -26 92 -35 125 -41 147 -112
360 -151 452 -8 17 -14 37 -14 45 0 8 -7 23 -15 34 -8 10 -15 25 -15 32 0 12
-17 55 -75 187 -7 17 -25 62 -40 100 -15 39 -59 142 -97 230 -38 88 -73 169
-78 180 -16 38 -49 111 -89 198 -23 49 -41 91 -41 95 0 4 -9 24 -19 43 -11 20
-32 65 -46 100 -15 35 -49 109 -75 164 -26 55 -58 123 -70 150 l-23 50 17 125
c9 69 16 129 16 133 0 9 -31 2 -65 -13 -99 -45 -515 -155 -665 -175 -25 -4
-79 -13 -120 -21 -230 -44 -737 -43 -965 1 -38 7 -88 16 -110 20 -131 21 -395
98 -505 147 -66 30 -152 70 -163 75 -4 3 -5 -15 -1 -39z"/>
<path d="M18094 17944 c-18 -14 -18 -15 4 -4 12 6 22 13 22 15 0 8 -5 6 -26
-11z"/>
<path d="M16945 17920 c-3 -6 -4 -20 -1 -33 3 -12 3 -16 0 -8 -4 9 -11 0 -20
-24 -7 -21 -11 -42 -8 -47 3 -4 1 -8 -5 -8 -10 0 -36 -74 -34 -97 0 -7 -3 -11
-7 -8 -4 3 -10 -9 -14 -25 -3 -16 -15 -49 -26 -72 -11 -23 -20 -47 -20 -53 0
-7 -7 -25 -15 -42 -8 -16 -16 -42 -17 -56 -1 -14 -6 -24 -10 -21 -9 6 -28 -29
-28 -52 0 -10 -7 -25 -15 -34 -9 -10 -18 -27 -20 -40 -2 -13 -12 -31 -21 -41
-9 -10 -13 -22 -10 -28 3 -5 3 -11 -1 -13 -5 -1 -28 -43 -52 -93 -25 -49 -50
-97 -57 -105 -7 -8 -14 -24 -16 -35 -1 -10 -11 -27 -20 -37 -16 -16 -23 -38
-19 -61 1 -5 -3 -6 -9 -2 -10 6 -37 -51 -32 -68 1 -5 -2 -6 -7 -3 -5 3 -14 -8
-20 -24 -5 -17 -14 -30 -19 -30 -4 0 -16 -15 -25 -32 -19 -36 -27 -50 -73
-118 -17 -25 -35 -56 -38 -68 -4 -12 -12 -20 -17 -17 -5 4 -12 -2 -16 -12 -3
-10 -15 -29 -27 -42 -12 -14 -15 -21 -6 -17 8 5 0 -4 -18 -19 -18 -15 -30 -30
-27 -35 3 -4 -2 -14 -11 -21 -14 -11 -18 -10 -30 5 -13 18 -14 18 -20 2 -5
-14 -9 -15 -15 -4 -5 7 -9 18 -9 23 0 6 5 3 10 -5 5 -8 10 -10 10 -4 0 6 -9
19 -20 29 -11 10 -20 15 -20 12 0 -3 -15 7 -32 24 -18 16 -36 29 -40 29 -7 0
-73 41 -95 60 -20 17 -65 31 -80 26 -8 -3 -12 -2 -9 3 11 17 -56 34 -129 34
-67 0 -77 -2 -107 -29 -38 -33 -118 -153 -118 -177 0 -9 -4 -18 -9 -22 -16
-10 -63 -176 -68 -240 -3 -50 0 -67 19 -100 29 -49 49 -53 143 -24 39 11 82
23 97 26 15 3 25 9 23 14 -3 4 3 8 12 7 10 0 47 7 83 16 36 10 85 17 110 18
42 0 50 -4 103 -56 56 -54 123 -86 149 -70 7 4 8 3 4 -4 -9 -16 7 -15 22 0 7
7 12 9 12 5 0 -4 9 -3 20 3 11 6 20 18 20 26 0 8 4 12 10 9 5 -3 17 3 27 15
10 11 23 20 29 20 7 0 14 6 17 14 3 8 32 34 64 57 92 69 138 109 138 122 0 7
7 12 15 12 17 0 45 22 113 88 27 26 54 49 59 50 17 4 83 68 80 79 -1 5 2 7 7
4 5 -3 29 14 55 37 25 24 49 41 51 38 3 -3 8 5 12 17 3 12 8 20 12 18 9 -6
111 89 111 103 0 6 7 11 16 11 8 0 13 4 9 9 -3 5 5 13 17 17 25 8 49 34 42 46
-3 4 3 5 12 1 13 -5 16 -3 11 10 -3 9 -3 16 1 16 22 -4 30 3 27 21 -2 11 0 18
5 15 15 -9 41 7 36 22 -3 8 -2 12 2 9 8 -5 44 19 42 28 -2 12 28 35 35 28 5
-4 5 1 2 11 -4 10 -3 16 2 13 10 -6 51 30 51 46 0 6 3 9 6 6 6 -7 54 39 54 52
0 5 9 11 19 15 11 3 23 15 26 26 4 10 11 19 16 19 15 0 50 40 44 51 -4 5 -1 8
6 7 7 -2 21 11 33 27 12 17 26 32 31 33 6 2 9 13 7 25 -2 16 0 18 6 9 7 -11
12 -10 26 3 9 9 16 24 16 32 0 9 3 13 7 10 9 -9 34 13 27 24 -3 5 2 9 10 9 9
0 16 6 16 13 0 7 14 23 31 36 17 13 28 25 25 28 -3 3 13 23 35 44 22 21 38 43
35 48 -3 5 4 11 15 14 15 4 20 11 15 22 -3 9 -2 14 3 11 5 -3 11 1 15 9 6 18
-10 30 -20 14 -5 -8 -9 -7 -14 2 -7 10 -12 10 -26 -2 -10 -8 -15 -9 -11 -3 4
8 -16 13 -61 17 -37 3 -80 10 -97 16 -16 5 -64 19 -105 32 -120 37 -324 145
-484 257 -50 34 -61 38 -71 22z m-248 -675 c0 -8 -4 -12 -9 -9 -5 3 -6 10 -3
15 9 13 12 11 12 -6z m18 -34 c3 -5 2 -12 -3 -15 -5 -3 -9 1 -9 9 0 17 3 19
12 6z"/>
<path d="M18047 17900 c-9 -12 -9 -13 2 -3 7 6 19 9 26 7 7 -3 15 -2 18 3 10
16 -34 9 -46 -7z"/>
<path d="M18036 17867 c3 -10 9 -15 12 -12 3 3 0 11 -7 18 -10 9 -11 8 -5 -6z"/>
<path d="M17935 17731 c-6 -11 13 -26 22 -17 4 3 1 6 -6 6 -7 0 -9 5 -6 10 3
6 4 10 1 10 -3 0 -7 -4 -11 -9z"/>
<path d="M17851 17643 c7 -12 15 -20 18 -17 3 2 -3 12 -13 22 -17 16 -18 16
-5 -5z"/>
<path d="M11576 17053 c-6 -14 -5 -15 5 -6 7 7 10 15 7 18 -3 3 -9 -2 -12 -12z"/>
<path d="M22295 15710 c-3 -5 -4 -10 0 -10 3 0 0 -10 -6 -22 -8 -17 -8 -20 0
-12 6 6 13 20 16 32 4 23 0 28 -10 12z"/>
<path d="M22263 15642 c1 -14 5 -18 11 -12 7 7 6 14 -1 21 -9 9 -12 7 -10 -9z"/>
<path d="M12038 15563 c7 -3 16 -2 19 1 4 3 -2 6 -13 5 -11 0 -14 -3 -6 -6z"/>
<path d="M46290 15273 c0 -10 -7 -79 -15 -153 -9 -74 -22 -209 -30 -300 -8
-91 -20 -201 -25 -245 -5 -44 -14 -156 -20 -250 -6 -93 -13 -177 -15 -185 -3
-8 -11 -145 -20 -305 -8 -159 -20 -378 -27 -485 -16 -263 -16 -1700 0 -1955 7
-104 19 -318 27 -475 8 -157 17 -296 20 -310 3 -14 11 -144 20 -290 8 -146 17
-281 20 -300 5 -32 14 -180 45 -700 6 -96 17 -269 25 -385 8 -115 17 -266 20
-335 3 -69 13 -236 21 -372 15 -244 15 -247 -5 -267 -37 -37 -40 -149 -5 -244
16 -44 33 -247 34 -409 0 -114 24 -180 84 -238 34 -32 43 -35 119 -42 123 -10
903 -9 1052 2 179 13 346 58 384 104 16 19 10 73 -18 176 -17 64 -19 85 -10
138 5 35 16 80 23 100 83 222 116 410 80 447 -14 13 -14 23 -5 59 6 24 17 88
26 142 14 90 25 151 70 399 20 110 50 269 75 400 12 61 27 146 35 190 8 44 25
134 40 200 14 66 32 154 40 195 23 121 73 370 89 440 8 36 24 110 36 165 12
55 28 129 36 165 23 97 51 228 84 390 73 360 90 429 90 379 0 -8 7 -59 15
-114 28 -183 34 -243 45 -447 6 -112 15 -237 20 -278 13 -120 65 -417 96 -550
8 -36 19 -87 24 -115 9 -51 58 -286 105 -500 52 -238 66 -302 91 -425 13 -69
34 -168 45 -220 11 -52 27 -124 34 -160 54 -251 59 -291 42 -320 -10 -15 -17
-41 -17 -57 0 -30 35 -172 70 -288 12 -38 32 -112 46 -162 22 -85 23 -97 10
-135 -7 -24 -22 -75 -31 -114 -18 -69 -18 -72 1 -97 37 -50 195 -94 388 -107
150 -11 917 -12 1048 -2 78 6 90 10 118 37 18 17 43 53 58 80 24 48 26 60 33
275 6 184 11 239 29 300 35 123 37 173 8 218 l-25 37 13 200 c7 110 17 238 23
285 5 47 12 130 16 185 3 55 12 154 20 220 7 66 17 161 20 210 3 50 11 124 16
165 10 83 32 327 54 613 8 103 19 234 24 290 45 465 46 2160 1 2982 -6 99 -17
326 -25 505 -21 461 -42 847 -54 975 -5 61 -12 169 -16 240 -3 72 -8 152 -11
178 l-6 49 -52 -6 c-172 -19 -369 -36 -486 -41 -74 -3 -237 -12 -362 -20 -604
-38 -2051 -39 -2488 -1 -91 8 -203 17 -250 21 -47 3 -155 15 -240 26 -399 52
-674 125 -803 213 -45 31 -47 31 -47 9z"/>
<path d="M43510 14260 c0 -5 -10 -19 -22 -30 -17 -16 -18 -19 -5 -15 10 4 17
2 17 -5 0 -6 5 -8 11 -4 8 4 7 9 -2 15 -12 7 -12 9 0 9 8 0 11 3 8 7 -4 3 -2
12 4 20 9 9 8 13 0 13 -6 0 -11 -4 -11 -10z"/>
<path d="M43573 14257 c0 -8 6 -14 14 -14 9 0 10 4 2 14 -6 7 -12 13 -14 13
-1 0 -2 -6 -2 -13z"/>
<path d="M43042 14204 c-7 -7 -12 -16 -12 -19 0 -17 -1 -19 -9 -6 -6 9 -8 2
-6 -20 4 -49 4 -49 16 -49 8 0 7 5 -2 16 -10 13 -10 17 2 25 8 5 11 9 6 9 -4
0 0 11 9 25 19 28 16 41 -4 19z"/>
<path d="M43607 14190 c3 -11 9 -17 15 -14 5 3 4 12 -3 20 -16 19 -18 18 -12
-6z"/>
<path d="M43480 14190 c0 -6 -5 -8 -12 -4 -7 4 -8 3 -4 -4 4 -6 13 -9 21 -5
11 3 13 1 9 -10 -3 -8 0 -18 6 -22 6 -3 10 -3 9 2 -4 22 2 34 14 27 7 -4 9 -3
4 2 -5 5 -12 9 -15 9 -4 0 -13 4 -19 8 -8 5 -13 4 -13 -3z"/>
<path d="M43070 14186 c0 -2 8 -10 18 -17 15 -13 16 -12 3 4 -13 16 -21 21
-21 13z"/>
<path d="M43570 14143 c0 -17 17 -25 23 -11 4 10 6 10 6 1 1 -7 5 -13 11 -13
5 0 6 8 3 18 -6 15 -5 15 10 4 8 -8 14 -19 11 -26 -3 -7 1 -18 9 -24 11 -9 13
-6 13 18 0 16 -4 26 -10 23 -5 -4 -7 0 -4 8 4 11 -4 14 -33 14 -24 0 -39 -5
-39 -12z"/>
<path d="M43123 14135 c0 -8 4 -12 9 -9 5 3 6 10 3 15 -9 13 -12 11 -12 -6z"/>
<path d="M43547 14110 c-3 -11 -1 -20 4 -20 5 0 9 9 9 20 0 11 -2 20 -4 20 -2
0 -6 -9 -9 -20z"/>
<path d="M43571 14094 c0 -11 3 -14 6 -6 3 7 2 16 -1 19 -3 4 -6 -2 -5 -13z"/>
<path d="M43001 14087 c-8 -10 -7 -14 2 -14 8 0 14 6 14 14 0 7 -1 13 -2 13
-2 0 -8 -6 -14 -13z"/>
<path d="M43030 14082 c0 -4 12 -12 26 -19 17 -8 24 -8 22 -1 -5 13 -48 31
-48 20z"/>
<path d="M43000 14052 c0 -5 7 -9 15 -9 8 0 15 4 15 9 0 4 -7 8 -15 8 -8 0
-15 -4 -15 -8z"/>
<path d="M43100 14049 c0 -5 5 -7 10 -4 6 3 10 8 10 11 0 2 -4 4 -10 4 -5 0
-10 -5 -10 -11z"/>
<path d="M43004 14032 c-6 -4 -8 -16 -4 -26 6 -18 7 -18 13 4 7 28 6 32 -9 22z"/>
<path d="M43080 14010 c0 -11 4 -20 9 -20 5 0 7 9 4 20 -3 11 -7 20 -9 20 -2
0 -4 -9 -4 -20z"/>
<path d="M43040 13990 c-13 -8 -12 -10 3 -10 9 0 17 5 17 10 0 12 -1 12 -20 0z"/>
<path d="M42985 13969 c-4 -6 -4 -13 -1 -16 3 -4 6 -1 6 5 0 6 8 13 18 15 15
4 15 5 0 6 -9 0 -20 -4 -23 -10z"/>
<path d="M42930 13937 c-12 -21 -12 -21 6 -7 10 8 20 15 22 16 2 1 -1 4 -5 7
-5 3 -15 -4 -23 -16z"/>
<path d="M42896 13942 c-2 -4 0 -14 6 -22 8 -12 9 -12 5 2 -3 9 -1 19 6 22 9
3 9 5 0 5 -6 1 -14 -3 -17 -7z"/>
<path d="M42850 13921 c0 -10 19 -25 25 -20 1 2 -3 10 -11 17 -8 7 -14 8 -14
3z"/>
<path d="M42815 13900 c3 -5 8 -10 11 -10 2 0 4 5 4 10 0 6 -5 10 -11 10 -5 0
-7 -4 -4 -10z"/>
<path d="M42710 13880 c0 -5 7 -7 15 -4 8 4 15 8 15 10 0 2 -7 4 -15 4 -8 0
-15 -4 -15 -10z"/>
<path d="M42755 13875 c-16 -7 -24 -14 -17 -14 7 -1 23 4 35 10 16 9 22 9 25
0 2 -6 8 -11 14 -11 6 0 6 6 -2 15 -15 18 -17 18 -55 0z"/>
<path d="M42677 13853 c3 -7 6 -13 8 -13 2 0 5 6 8 13 3 8 -1 14 -8 14 -7 0
-11 -6 -8 -14z"/>
<path d="M42745 13841 c-3 -5 0 -13 6 -17 8 -5 9 -3 4 6 -6 10 -4 12 9 7 10
-4 15 -3 11 3 -8 13 -22 13 -30 1z"/>
<path d="M42715 13820 c-3 -5 -1 -10 5 -10 6 0 8 -5 4 -12 -4 -7 -3 -8 4 -4 6
4 9 13 5 21 -6 18 -10 19 -18 5z"/>
<path d="M42548 13804 c-33 -17 -34 -20 -10 -20 9 0 28 -4 42 -8 17 -5 21 -4
11 2 -11 8 -11 10 0 15 8 4 1 4 -16 1 l-30 -5 25 15 c32 20 14 20 -22 0z"/>
<path d="M42626 13805 c10 -8 23 -15 28 -15 6 0 1 7 -10 15 -10 8 -23 15 -28
15 -6 0 -1 -7 10 -15z"/>
<path d="M42618 13783 c6 -2 9 -10 6 -15 -4 -7 -2 -8 5 -4 13 9 5 26 -12 25
-9 0 -8 -2 1 -6z"/>
<path d="M42596 13745 c4 -8 8 -15 10 -15 2 0 4 7 4 15 0 8 -4 15 -10 15 -5 0
-7 -7 -4 -15z"/>
<path d="M42635 13750 c-2 -3 5 -6 15 -7 11 -1 22 2 24 5 3 4 -4 8 -15 8 -11
0 -22 -3 -24 -6z"/>
<path d="M42447 13738 c-18 -13 -33 -63 -16 -53 5 4 9 15 9 26 0 17 11 24 33
20 5 -1 6 3 2 9 -8 13 -8 13 -28 -2z"/>
<path d="M42636 13713 c-6 -14 -5 -15 5 -6 7 7 10 15 7 18 -3 3 -9 -2 -12 -12z"/>
<path d="M42453 13702 c-1 -10 4 -19 11 -19 6 0 12 9 12 19 0 10 -5 18 -11 18
-6 0 -11 -8 -12 -18z"/>
<path d="M42581 13664 c0 -11 3 -14 6 -6 3 7 2 16 -1 19 -3 4 -6 -2 -5 -13z"/>
<path d="M42350 13640 c-7 -12 -16 -18 -23 -13 -7 4 -6 0 2 -10 10 -13 17 -15
27 -6 11 9 18 8 31 -2 15 -13 15 -12 3 8 -8 12 -18 19 -24 16 -5 -4 -7 1 -3
10 9 24 0 21 -13 -3z"/>
<path d="M42270 13550 c-11 -7 -11 -10 -2 -10 7 0 10 -5 7 -10 -4 -6 -1 -9 7
-8 8 2 13 -6 12 -19 0 -13 3 -23 8 -23 5 0 7 13 6 29 -1 16 -5 29 -8 29 -18
-2 -23 4 -10 12 8 5 11 10 5 10 -5 0 -17 -5 -25 -10z"/>
<path d="M42250 13500 c-9 -6 -10 -10 -3 -10 6 0 15 5 18 10 8 12 4 12 -15 0z"/>
<path d="M42220 13435 c-7 -9 -10 -18 -7 -21 3 -3 10 4 17 15 13 25 8 27 -10
6z"/>
<path d="M42268 13443 c6 -2 18 -2 25 0 6 3 1 5 -13 5 -14 0 -19 -2 -12 -5z"/>
<path d="M42195 13390 c-4 -6 -1 -9 6 -8 6 2 14 -3 17 -11 2 -8 0 -11 -6 -7
-6 4 -8 -2 -4 -16 6 -21 7 -21 10 -4 3 15 6 16 13 5 6 -10 8 -8 7 7 -2 25 -34
49 -43 34z"/>
<path d="M42176 13317 c3 -10 9 -15 12 -12 3 3 0 11 -7 18 -10 9 -11 8 -5 -6z"/>
<path d="M42231 13294 c0 -11 3 -14 6 -6 3 7 2 16 -1 19 -3 4 -6 -2 -5 -13z"/>
<path d="M42200 13293 c0 -4 5 -15 10 -23 8 -13 10 -13 10 2 0 9 -4 20 -10 23
-5 3 -10 3 -10 -2z"/>
<path d="M42174 13265 c-1 -14 2 -23 7 -20 4 3 10 -20 12 -52 4 -53 4 -52 3 9
-2 65 -19 115 -22 63z"/>
<path d="M42231 13254 c0 -11 3 -14 6 -6 3 7 2 16 -1 19 -3 4 -6 -2 -5 -13z"/>
<path d="M42227 13174 c6 -68 11 -77 12 -24 0 25 -3 51 -8 59 -5 8 -7 -5 -4
-35z"/>
<path d="M42175 13100 c4 -6 11 -8 16 -5 14 9 11 15 -7 15 -8 0 -12 -5 -9 -10z"/>
<path d="M42210 13100 c0 -5 5 -10 11 -10 5 0 7 5 4 10 -3 6 -8 10 -11 10 -2
0 -4 -4 -4 -10z"/>
<path d="M42170 13076 c0 -2 9 -6 20 -9 11 -3 20 -1 20 4 0 5 -9 9 -20 9 -11
0 -20 -2 -20 -4z"/>
<path d="M42224 13059 c-3 -6 -2 -15 3 -20 5 -5 9 -1 9 11 0 23 -2 24 -12 9z"/>
<path d="M42185 13030 c5 -17 4 -21 -5 -15 -9 5 -11 4 -6 -3 4 -7 11 -12 17
-12 13 0 11 37 -2 46 -8 4 -9 -1 -4 -16z"/>
<path d="M43496 13024 c-32 -32 -35 -49 -20 -110 17 -62 51 -104 85 -104 11 0
34 14 51 30 25 26 29 36 24 62 -3 17 -6 42 -6 55 0 59 -95 106 -134 67z"/>
<path d="M42214 13008 c3 -13 5 -26 5 -30 1 -5 6 -8 12 -8 8 0 8 4 0 14 -7 8
-8 16 -2 18 5 1 3 9 -5 16 -12 11 -13 9 -10 -10z"/>
<path d="M42210 12939 c0 -5 5 -7 10 -4 6 3 10 8 10 11 0 2 -4 4 -10 4 -5 0
-10 -5 -10 -11z"/>
<path d="M42187 12881 c-4 -17 -3 -21 5 -13 5 5 8 16 6 23 -3 8 -7 3 -11 -10z"/>
<path d="M42216 12845 c-9 -26 -7 -32 5 -12 6 10 9 21 6 23 -2 3 -7 -2 -11
-11z"/>
<path d="M42182 12720 c-5 -23 -6 -40 -1 -40 5 0 9 9 9 21 0 11 4 18 9 15 4
-3 6 6 3 19 -2 14 -6 25 -7 25 -1 0 -7 -18 -13 -40z"/>
<path d="M42223 12701 c0 -11 5 -18 9 -15 4 3 5 11 1 19 -7 21 -12 19 -10 -4z"/>
<path d="M42410 12680 c0 -5 5 -10 11 -10 5 0 7 5 4 10 -3 6 -8 10 -11 10 -2
0 -4 -4 -4 -10z"/>
<path d="M42179 12663 c0 -5 -2 -20 -4 -35 -2 -16 1 -28 7 -28 6 0 8 11 6 25
-3 14 -1 25 3 25 5 0 9 5 9 10 0 11 -20 14 -21 3z"/>
<path d="M42231 12654 c0 -11 3 -14 6 -6 3 7 2 16 -1 19 -3 4 -6 -2 -5 -13z"/>
<path d="M42446 12655 c-3 -8 -1 -15 4 -15 6 0 10 7 10 15 0 8 -2 15 -4 15 -2
0 -6 -7 -10 -15z"/>
<path d="M42422 12600 c0 -14 2 -19 5 -12 2 6 2 18 0 25 -3 6 -5 1 -5 -13z"/>
<path d="M42215 12570 c-3 -5 -1 -10 4 -10 6 0 11 5 11 10 0 6 -2 10 -4 10 -3
0 -8 -4 -11 -10z"/>
<path d="M42402 12500 c0 -19 2 -27 5 -17 2 9 2 25 0 35 -3 9 -5 1 -5 -18z"/>
<path d="M42140 12450 c0 -5 5 -10 11 -10 5 0 7 5 4 10 -3 6 -8 10 -11 10 -2
0 -4 -4 -4 -10z"/>
<path d="M42401 12394 c0 -11 3 -14 6 -6 3 7 2 16 -1 19 -3 4 -6 -2 -5 -13z"/>
<path d="M42421 12374 c0 -11 3 -14 6 -6 3 7 2 16 -1 19 -3 4 -6 -2 -5 -13z"/>
<path d="M39155 12340 c-281 -35 -554 -53 -636 -41 -41 5 -83 13 -92 17 -20 7
-21 -3 -7 -55 5 -20 17 -72 26 -116 19 -93 58 -256 79 -335 9 -30 19 -73 24
-95 8 -35 70 -274 107 -410 23 -88 94 -329 103 -355 5 -14 19 -59 31 -100 32
-112 136 -437 187 -585 64 -187 157 -475 187 -580 15 -49 33 -112 41 -140 30
-103 60 -234 85 -365 6 -30 17 -84 25 -120 23 -103 53 -268 65 -360 7 -46 13
-87 16 -91 2 -3 10 -64 19 -135 15 -125 19 -164 50 -479 45 -443 45 -1402 0
-1840 -7 -77 -16 -180 -20 -230 -3 -49 -10 -121 -15 -160 -5 -38 -12 -98 -15
-131 -5 -49 -11 -64 -28 -73 -27 -13 -77 -44 -153 -96 -32 -21 -70 -45 -82
-52 -13 -7 -40 -25 -60 -41 -21 -15 -68 -49 -107 -75 -38 -26 -110 -80 -160
-122 -132 -110 -269 -174 -473 -221 -76 -17 -100 -29 -127 -63 -30 -38 -46
-88 -53 -166 l-7 -70 -369 0 -368 0 -18 46 c-32 85 -131 204 -217 260 -134 89
-169 105 -253 113 -104 9 -175 30 -258 73 -67 35 -168 116 -216 172 -56 65
-231 246 -293 301 -212 192 -371 294 -501 321 -77 16 -76 18 -135 -121 -59
-136 -76 -233 -59 -333 7 -39 20 -83 29 -97 9 -13 20 -41 24 -60 9 -45 103
-423 128 -515 29 -105 39 -154 33 -160 -3 -3 -933 -5 -2068 -5 l-2062 0 -7 93
c-12 164 -44 401 -60 449 l-17 48 -52 -54 c-106 -107 -253 -143 -394 -96 -37
13 -83 33 -102 46 -59 40 -84 58 -105 77 -26 24 -33 9 -45 -90 -5 -43 -14
-109 -20 -147 -6 -38 -10 -126 -9 -195 l1 -126 -3096 -3 -3096 -2 0 37 c-1 49
-23 140 -44 181 -21 41 -64 68 -130 82 -214 46 -385 130 -528 260 -9 8 -23 20
-30 25 -59 46 -88 65 -97 65 -5 0 -14 6 -18 13 -4 6 -16 17 -25 22 -9 6 -48
31 -85 56 -255 171 -272 181 -299 175 -24 -6 -127 -75 -149 -100 -5 -6 -35
-31 -65 -55 -50 -39 -59 -43 -101 -39 -46 5 -119 50 -181 112 -26 27 -27 27
-45 9 -10 -10 -29 -38 -41 -61 -21 -39 -24 -57 -26 -185 -1 -78 -5 -148 -9
-154 -10 -16 -33 -2 -157 97 -96 77 -213 160 -420 297 -142 94 -153 95 -241
28 -35 -28 -70 -54 -77 -60 -7 -5 -21 -18 -30 -27 -9 -10 -21 -18 -27 -18 -6
0 -18 -9 -28 -20 -11 -13 -29 -20 -53 -20 -40 0 -123 37 -131 57 -3 7 -11 13
-17 13 -7 0 -26 16 -42 35 -16 19 -32 35 -35 35 -4 0 -14 -15 -24 -32 -9 -18
-27 -51 -40 -72 -21 -36 -23 -51 -23 -165 0 -105 -4 -141 -25 -216 -36 -129
-63 -215 -78 -253 -19 -45 -5 -62 72 -90 35 -13 65 -25 68 -27 2 -3 -1227 -5
-2731 -5 l-2736 0 -7 108 c-7 109 -34 243 -60 297 -8 17 -35 82 -59 146 -65
169 -66 170 -86 159 -10 -5 -71 -21 -136 -36 -104 -23 -141 -27 -294 -27 -155
1 -187 4 -279 27 -58 14 -105 25 -106 23 -1 -1 -9 -27 -18 -57 -40 -127 -50
-204 -54 -423 l-5 -217 -1086 2 -1087 3 -6 235 c-5 215 -8 244 -33 340 -16 58
-31 108 -35 111 -3 4 -51 -5 -106 -18 -142 -35 -401 -36 -554 -4 -57 13 -120
29 -141 36 -38 13 -39 13 -49 -13 -5 -15 -26 -70 -45 -122 -20 -52 -40 -104
-45 -115 -50 -106 -67 -185 -86 -386 l-6 -66 -4695 -1 c-5109 -2 -4755 2
-4770 -56 -7 -29 1 -60 22 -81 14 -13 3276 -15 29708 -15 24147 0 29695 2
29710 13 13 10 17 24 14 62 -2 40 -7 52 -27 61 -28 14 -4067 21 -8112 15
l-2497 -4 -6 89 c-14 216 -35 339 -70 425 -19 46 -65 161 -101 254 -36 94 -72
184 -80 200 -7 17 -16 44 -19 60 -7 31 18 732 30 859 6 64 6 68 -12 63 -135
-40 -197 -50 -349 -53 -136 -2 -238 4 -305 19 -8 2 -42 9 -75 16 -66 14 -180
45 -209 57 -16 6 -18 3 -11 -27 4 -19 13 -56 20 -84 13 -46 25 -94 61 -250 8
-33 19 -85 25 -115 5 -30 16 -75 24 -100 7 -25 25 -97 39 -160 15 -63 32 -135
37 -160 10 -39 8 -57 -15 -135 -104 -350 -116 -420 -116 -722 l0 -233 -1109 0
-1110 0 -3 282 c-3 256 -6 291 -26 368 -66 247 -94 347 -102 366 -6 14 -1 52
15 115 12 52 26 112 29 134 4 22 14 63 21 90 8 28 26 100 40 160 14 61 32 135
40 165 8 30 26 109 41 175 14 66 28 124 31 129 4 5 -2 6 -13 2 -33 -13 -156
-44 -264 -67 -88 -19 -135 -23 -295 -23 -171 0 -200 3 -294 26 l-104 26 7
-186 c4 -103 14 -305 22 -449 l15 -262 -56 -143 c-31 -79 -87 -220 -125 -315
-67 -168 -69 -176 -84 -323 -9 -82 -16 -177 -16 -210 l0 -60 -2537 1 -2538 0
72 27 c43 16 75 34 80 46 8 17 -1 54 -30 126 -3 8 -22 76 -42 150 -33 120 -37
150 -38 266 l-2 132 -38 54 c-20 30 -37 59 -37 65 0 10 26 77 55 138 61 133
199 563 258 805 44 180 88 422 117 635 54 402 66 990 30 1414 -11 128 -22 236
-24 240 -3 3 -10 45 -16 91 -29 220 -104 530 -186 775 -35 106 -126 327 -184
449 -28 59 -49 115 -46 123 7 17 54 276 67 368 5 33 15 96 24 140 8 44 21 125
29 180 8 55 24 161 35 235 50 334 61 408 67 460 3 30 12 93 19 140 8 47 16
119 20 160 4 41 13 113 20 160 8 47 17 126 20 175 4 50 9 98 12 109 4 16 1 17
-38 11 -24 -4 -82 -15 -129 -25 -293 -64 -639 -100 -966 -100 -377 0 -653 38
-917 125 -124 41 -187 43 -412 15z m1390 -5133 c4 -45 13 -125 20 -177 8 -52
17 -131 20 -175 3 -44 10 -107 15 -140 6 -33 14 -103 20 -155 14 -138 63 -501
100 -740 10 -69 22 -152 25 -185 l6 -60 -67 -45 c-37 -25 -75 -49 -84 -55 -71
-44 -114 -72 -124 -80 -6 -5 -45 -32 -86 -60 -41 -27 -76 -53 -78 -57 -2 -5
-8 -8 -13 -8 -6 0 -37 -22 -69 -49 -116 -97 -140 -115 -167 -129 -20 -11 -22
-9 -33 55 -6 37 -8 94 -5 127 8 79 -8 149 -46 198 l-31 38 42 108 c53 133 74
189 139 372 28 80 55 154 60 165 12 27 36 98 71 218 16 54 33 103 36 109 4 6
10 24 14 42 4 17 20 72 35 121 44 145 74 253 100 360 14 55 31 123 39 150 8
28 20 79 27 114 15 80 26 61 34 -62z m-4531 -1927 c52 -24 137 -85 164 -120
11 -14 41 -69 68 -122 27 -53 56 -110 64 -125 34 -63 105 -161 153 -211 l52
-52 -305 2 -305 3 -3 329 -2 328 34 -6 c20 -4 55 -16 80 -26z m-13935 -593
c14 -7 26 -18 29 -24 3 -10 -40 -13 -195 -12 l-198 0 55 20 c103 38 248 45
309 16z m1354 -4 c51 -26 30 -33 -98 -33 l-125 0 0 24 c0 22 5 25 43 29 62 6
148 -4 180 -20z m16063 17 c19 0 24 -5 24 -25 l0 -25 -132 0 -132 0 21 22 c25
25 89 38 152 32 24 -2 54 -4 67 -4z m1437 -21 c37 -11 67 -22 67 -24 0 -3 -88
-5 -195 -5 -193 0 -221 5 -172 32 58 31 185 30 300 -3z"/>
<path d="M44475 12350 c3 -5 -9 -13 -27 -18 -31 -9 -30 -9 17 -9 28 1 41 3 31
5 -13 3 -15 6 -7 12 9 5 8 9 -4 13 -9 4 -13 3 -10 -3z"/>
<path d="M44403 12343 c9 -2 25 -2 35 0 9 3 1 5 -18 5 -19 0 -27 -2 -17 -5z"/>
<path d="M44588 12333 c6 -2 18 -2 25 0 6 3 1 5 -13 5 -14 0 -19 -2 -12 -5z"/>
<path d="M44650 12331 c0 -7 -5 -9 -12 -5 -7 5 -8 3 -3 -5 5 -9 10 -10 18 -2
6 6 8 14 4 18 -4 3 -7 1 -7 -6z"/>
<path d="M42135 12311 c2 -12 -1 -21 -8 -21 -8 0 -7 -3 2 -9 8 -5 10 -14 5
-22 -6 -11 -3 -10 10 1 12 9 14 16 7 18 -8 3 -9 8 -1 17 7 9 6 16 -4 25 -13
10 -15 8 -11 -9z"/>
<path d="M42411 12294 c0 -11 3 -14 6 -6 3 7 2 16 -1 19 -3 4 -6 -2 -5 -13z"/>
<path d="M44238 12298 c5 -5 16 -8 23 -6 8 3 3 7 -10 11 -17 4 -21 3 -13 -5z"/>
<path d="M44634 12279 c-20 -22 -23 -28 -8 -19 18 11 50 50 41 50 -2 0 -16
-14 -33 -31z"/>
<path d="M44148 12278 c5 -5 16 -8 23 -6 8 3 3 7 -10 11 -17 4 -21 3 -13 -5z"/>
<path d="M44115 12269 c19 -12 19 -12 0 -21 -16 -7 -15 -7 5 -3 14 2 36 5 50
6 23 1 23 2 -5 9 -16 4 -39 11 -50 15 -20 6 -20 6 0 -6z"/>
<path d="M44581 12264 c0 -11 3 -14 6 -6 3 7 2 16 -1 19 -3 4 -6 -2 -5 -13z"/>
<path d="M44038 12263 c7 -3 16 -2 19 1 4 3 -2 6 -13 5 -11 0 -14 -3 -6 -6z"/>
<path d="M44223 12263 c9 -2 23 -2 30 0 6 3 -1 5 -18 5 -16 0 -22 -2 -12 -5z"/>
<path d="M42150 12241 c0 -7 -4 -9 -10 -6 -5 3 -10 1 -10 -4 0 -6 4 -11 9 -11
13 0 25 20 17 27 -3 4 -6 1 -6 -6z"/>
<path d="M44038 12243 c7 -3 16 -2 19 1 4 3 -2 6 -13 5 -11 0 -14 -3 -6 -6z"/>
<path d="M42137 12196 c-16 -13 -16 -14 0 -27 12 -10 15 -11 9 -1 -4 7 -2 19
4 27 15 18 11 19 -13 1z"/>
<path d="M43870 12185 c0 -8 8 -15 18 -15 13 0 14 2 3 9 -11 7 -11 9 0 14 10
4 9 6 -3 6 -10 1 -18 -6 -18 -14z"/>
<path d="M42115 12150 c2 -27 15 -38 15 -12 0 11 -4 23 -8 26 -5 3 -8 -4 -7
-14z"/>
<path d="M44330 12150 c-8 -5 -10 -10 -5 -10 6 0 17 5 25 10 8 5 11 10 5 10
-5 0 -17 -5 -25 -10z"/>
<path d="M44428 12153 c7 -3 16 -2 19 1 4 3 -2 6 -13 5 -11 0 -14 -3 -6 -6z"/>
<path d="M43560 12140 c0 -5 5 -10 10 -10 6 0 10 5 10 10 0 6 -4 10 -10 10 -5
0 -10 -4 -10 -10z"/>
<path d="M43515 12130 c-3 -6 1 -7 9 -4 18 7 21 14 7 14 -6 0 -13 -4 -16 -10z"/>
<path d="M44420 12130 c0 -5 -15 -14 -32 -19 -20 -5 -25 -9 -13 -10 11 0 36 8
55 19 30 16 32 19 13 20 -13 0 -23 -4 -23 -10z"/>
<path d="M43565 12110 c-3 -5 -1 -10 4 -10 6 0 11 5 11 10 0 6 -2 10 -4 10 -3
0 -8 -4 -11 -10z"/>
<path d="M43473 12103 c-18 -2 -33 -8 -33 -13 0 -8 67 4 77 14 4 3 2 5 -3 4
-5 0 -24 -3 -41 -5z"/>
<path d="M44018 12103 c7 -3 16 -2 19 1 4 3 -2 6 -13 5 -11 0 -14 -3 -6 -6z"/>
<path d="M42113 12065 c0 -22 2 -30 4 -17 2 12 2 30 0 40 -3 9 -5 -1 -4 -23z"/>
<path d="M42136 12085 c-3 -9 -6 -22 -5 -28 0 -7 5 -1 10 12 5 13 8 26 5 28
-2 2 -6 -3 -10 -12z"/>
<path d="M43516 12055 c-9 -26 -7 -32 5 -12 6 10 9 21 6 23 -2 3 -7 -2 -11
-11z"/>
<path d="M43112 12044 c-7 -8 -8 -14 -3 -14 10 0 25 19 20 25 -2 1 -10 -3 -17
-11z"/>
<path d="M43030 12030 c-13 -9 -13 -10 0 -10 13 0 13 -1 0 -11 -12 -8 -12 -10
-1 -7 8 2 15 12 17 21 3 20 3 19 -16 7z"/>
<path d="M43068 12023 c7 -3 16 -2 19 1 4 3 -2 6 -13 5 -11 0 -14 -3 -6 -6z"/>
<path d="M43087 12012 c-9 -4 10 -7 43 -7 33 0 52 3 43 7 -10 3 -29 7 -43 7
-14 0 -33 -4 -43 -7z"/>
<path d="M42151 11984 c0 -11 3 -14 6 -6 3 7 2 16 -1 19 -3 4 -6 -2 -5 -13z"/>
<path d="M43385 11990 c3 -5 11 -10 16 -10 6 0 7 5 4 10 -3 6 -11 10 -16 10
-6 0 -7 -4 -4 -10z"/>
<path d="M42125 11950 c-3 -5 -1 -10 4 -10 6 0 11 5 11 10 0 6 -2 10 -4 10 -3
0 -8 -4 -11 -10z"/>
<path d="M42413 11910 c0 -30 2 -43 4 -27 2 15 2 39 0 55 -2 15 -4 2 -4 -28z"/>
<path d="M42820 11950 c22 -7 21 -8 -12 -9 -39 -1 -53 -23 -22 -35 8 -3 12 -2
9 3 -3 5 0 13 6 17 6 3 14 2 18 -4 4 -6 14 -4 28 8 27 21 20 30 -21 29 -30 -1
-30 -1 -6 -9z"/>
<path d="M42130 11909 c-7 -11 -9 -23 -6 -27 3 -3 6 1 6 9 0 12 2 11 11 -1 9
-12 10 -12 5 4 -4 11 -1 23 6 28 10 6 10 8 1 8 -7 0 -17 -9 -23 -21z"/>
<path d="M42737 11909 c7 -7 15 -10 18 -7 3 3 -2 9 -12 12 -14 6 -15 5 -6 -5z"/>
<path d="M42838 11893 c7 -3 16 -2 19 1 4 3 -2 6 -13 5 -11 0 -14 -3 -6 -6z"/>
<path d="M43270 11870 c-20 -6 -21 -8 -5 -8 11 0 29 3 40 8 25 11 -1 11 -35 0z"/>
<path d="M42837 11859 c7 -7 15 -10 18 -7 3 3 -2 9 -12 12 -14 6 -15 5 -6 -5z"/>
<path d="M43201 11854 c0 -11 3 -14 6 -6 3 7 2 16 -1 19 -3 4 -6 -2 -5 -13z"/>
<path d="M42141 11848 c0 -9 -7 -18 -13 -21 -7 -2 -10 -8 -5 -12 11 -13 29 11
24 31 -4 16 -5 16 -6 2z"/>
<path d="M42416 11835 c-11 -8 -17 -17 -14 -20 2 -3 13 4 23 15 21 23 18 25
-9 5z"/>
<path d="M43225 11840 c-3 -5 -1 -10 4 -10 6 0 11 5 11 10 0 6 -2 10 -4 10 -3
0 -8 -4 -11 -10z"/>
<path d="M43028 11823 c6 -2 9 -10 6 -15 -4 -7 -2 -8 5 -4 13 9 5 26 -12 25
-9 0 -8 -2 1 -6z"/>
<path d="M43158 11823 c7 -3 16 -2 19 1 4 3 -2 6 -13 5 -11 0 -14 -3 -6 -6z"/>
<path d="M42400 11733 c0 -15 29 -49 30 -35 0 7 -7 20 -15 28 -8 9 -15 11 -15
7z"/>
<path d="M42451 11624 c0 -11 3 -14 6 -6 3 7 2 16 -1 19 -3 4 -6 -2 -5 -13z"/>
<path d="M42146 11607 c3 -10 9 -15 12 -12 3 3 0 11 -7 18 -10 9 -11 8 -5 -6z"/>
<path d="M42440 11580 c0 -5 5 -10 11 -10 5 0 7 5 4 10 -3 6 -8 10 -11 10 -2
0 -4 -4 -4 -10z"/>
<path d="M42200 11487 c0 -18 -6 -39 -12 -46 -11 -11 -9 -12 8 -3 16 8 19 18
16 46 -5 45 -12 47 -12 3z"/>
<path d="M42218 11423 c7 -3 16 -2 19 1 4 3 -2 6 -13 5 -11 0 -14 -3 -6 -6z"/>
<path d="M42187 11413 c-12 -11 13 -31 33 -26 23 6 27 20 5 20 -8 0 -15 -4
-15 -9 0 -5 -5 -6 -10 -3 -6 4 -8 11 -5 16 7 10 1 12 -8 2z"/>
<path d="M42491 11384 c0 -11 3 -14 6 -6 3 7 2 16 -1 19 -3 4 -6 -2 -5 -13z"/>
<path d="M42226 11365 c4 -11 2 -13 -9 -9 -12 4 -14 1 -10 -15 3 -11 10 -18
16 -14 7 4 8 0 3 -13 -4 -10 -4 -15 1 -11 11 12 14 77 3 77 -5 0 -7 -7 -4 -15z"/>
<path d="M42502 11315 c0 -16 2 -22 5 -12 2 9 2 23 0 30 -3 6 -5 -1 -5 -18z"/>
<path d="M42537 11313 c-4 -3 -7 -13 -7 -22 1 -13 3 -13 11 2 11 19 8 33 -4
20z"/>
<path d="M42240 11245 c0 -5 5 -17 10 -25 5 -8 10 -10 10 -5 0 6 -5 17 -10 25
-5 8 -10 11 -10 5z"/>
<path d="M42564 11195 c0 -24 3 -42 7 -39 4 2 9 -2 12 -8 2 -8 8 -9 13 -4 5 5
4 11 -3 13 -7 3 -13 17 -13 31 0 15 -4 32 -8 39 -4 7 -8 -7 -8 -32z"/>
<path d="M42281 11214 c0 -11 3 -14 6 -6 3 7 2 16 -1 19 -3 4 -6 -2 -5 -13z"/>
<path d="M42300 11201 c0 -10 -7 -24 -15 -31 -15 -13 -7 -39 21 -68 12 -11 13
-8 8 20 -2 18 -5 48 -4 66 0 17 -2 32 -5 32 -3 0 -5 -8 -5 -19z m10 -76 c0 -5
-5 -3 -10 5 -5 8 -10 20 -10 25 0 6 5 3 10 -5 5 -8 10 -19 10 -25z"/>
<path d="M42655 11069 c-4 -6 -5 -12 -2 -15 2 -3 7 2 10 11 7 17 1 20 -8 4z"/>
<path d="M42353 11023 c0 -9 4 -10 14 -2 9 8 13 8 13 0 0 -6 4 -11 8 -11 5 0
9 6 9 13 0 7 -10 13 -22 13 -12 0 -22 -6 -22 -13z"/>
<path d="M42690 11026 c0 -3 9 -10 20 -16 11 -6 20 -8 20 -6 0 3 -9 10 -20 16
-11 6 -20 8 -20 6z"/>
<path d="M42722 10977 c-8 -10 -6 -13 11 -14 15 -2 18 0 8 6 -11 7 -11 9 0 14
8 3 9 6 3 6 -6 1 -16 -5 -22 -12z"/>
<path d="M42455 10950 c-4 -6 -11 -7 -17 -4 -7 4 -8 2 -4 -5 6 -8 12 -9 20 -2
7 6 17 7 21 3 5 -4 5 -1 1 6 -9 15 -13 15 -21 2z"/>
<path d="M42720 10925 c0 -10 10 -15 27 -15 26 0 26 1 7 15 -25 19 -34 19 -34
0z"/>
<path d="M42456 10921 c-3 -5 2 -15 12 -22 15 -12 16 -12 5 2 -7 9 -10 19 -6
22 3 4 4 7 0 7 -3 0 -8 -4 -11 -9z"/>
<path d="M42822 10909 c-23 -9 -22 -29 1 -29 7 0 6 4 -3 10 -9 6 -10 10 -3 10
6 0 19 3 29 7 12 4 15 3 10 -5 -5 -8 -2 -10 9 -5 13 5 14 7 3 14 -16 10 -17
10 -46 -2z"/>
<path d="M42905 10880 c-3 -6 1 -7 9 -4 18 7 21 14 7 14 -6 0 -13 -4 -16 -10z"/>
<path d="M42530 10870 c-17 -11 10 -19 34 -10 19 6 19 7 -1 12 -11 3 -26 2
-33 -2z"/>
<path d="M42602 10866 c7 -7 19 -11 26 -9 16 7 8 16 -19 20 -16 2 -18 1 -7
-11z"/>
<path d="M42650 10873 c0 -4 5 -15 10 -23 8 -13 10 -13 10 2 0 9 -4 20 -10 23
-5 3 -10 3 -10 -2z"/>
<path d="M42725 10855 c0 -18 3 -21 13 -13 6 6 12 14 12 18 0 4 -6 10 -12 13
-8 3 -13 -4 -13 -18z"/>
<path d="M42795 10860 c-3 -6 1 -7 9 -4 18 7 21 14 7 14 -6 0 -13 -4 -16 -10z"/>
<path d="M42848 10863 c7 -3 16 -2 19 1 4 3 -2 6 -13 5 -11 0 -14 -3 -6 -6z"/>
<path d="M42680 10851 c0 -6 4 -13 10 -16 6 -3 7 1 4 9 -7 18 -14 21 -14 7z"/>
<path d="M42760 10850 c0 -5 5 -10 11 -10 5 0 7 5 4 10 -3 6 -8 10 -11 10 -2
0 -4 -4 -4 -10z"/>
</g>
</svg>
